<svg width="253" height="235" viewBox="0 0 253 235" fill="none" xmlns="http://www.w3.org/2000/svg">
<path d="M235.511 224.927C251.686 215.413 265.036 21.5302 235.512 8.44225C206.014 -4.64569 38.7908 -2.25549 16.9968 13.8028C-4.76965 29.861 -4.76963 213.046 12.0898 224.927C28.9767 236.832 210.236 239.802 235.511 224.927Z" fill="#8AD6FF"/>
<g clip-path="url(#clip0_173_8647)">
<path d="M187.375 109.061C196.46 80.0735 180.333 49.2119 151.355 40.1294C122.376 31.0469 91.5197 47.1829 82.4343 76.1706C77.2469 92.7217 80.3036 109.867 89.2538 123.237L87.554 151.692C87.2376 156.982 90.7023 161.868 95.9315 163.506L126.443 173.069C131.672 174.708 137.305 172.674 140.065 168.15L154.91 143.815C169.89 137.946 182.187 125.612 187.374 109.061L187.375 109.061Z" fill="#FFBA4D"/>
<path d="M127.304 178.825L91.9398 167.741C90.4747 167.282 88.9146 168.098 88.4555 169.563C87.9963 171.028 88.8117 172.589 90.2763 173.049L125.641 184.133C127.106 184.592 128.666 183.775 129.125 182.31C129.585 180.844 128.769 179.284 127.304 178.825Z" fill="#1E1E1E"/>
<path d="M120.52 186.534L93.1102 177.943C91.6451 177.484 90.0847 178.299 89.6254 179.765C89.1661 181.23 89.9822 182.791 91.4467 183.25L118.856 191.841C120.321 192.3 121.882 191.484 122.341 190.019C122.801 188.553 121.984 186.993 120.52 186.534Z" fill="#1E1E1E"/>
<path d="M115.268 194.722L94.1376 188.099C93.55 187.915 92.8758 188.27 92.766 188.876C91.8137 194.133 95.5283 199.622 101.539 201.505C107.549 203.389 113.732 201.003 115.95 196.142C116.207 195.582 115.855 194.906 115.268 194.722Z" fill="#1E1E1E"/>
<path d="M106.477 159.863L106.462 159.858C105.886 159.667 105.574 159.049 105.762 158.469C111.59 140.751 113.382 121.622 110.947 103.139C109.764 102.987 108.591 102.785 107.43 102.525C102.295 101.391 98.774 99.174 97.046 95.9905C95.5934 93.3088 95.5397 89.9473 96.9119 87.2202C97.6596 85.7316 98.706 84.8139 99.9371 84.562C100.832 84.3788 101.703 84.5956 102.281 84.7767L102.306 84.7847C105.607 85.8192 108.553 88.5418 110.381 92.249C111.705 94.9295 112.379 97.7832 112.887 101.13C116.84 101.444 120.864 101.123 124.73 100.193C124.237 99.3971 123.882 98.5777 123.659 97.7265C123.123 95.6722 123.447 93.5614 123.737 92.1544C124.066 90.5483 124.72 88.2629 126.546 86.9209C129.665 84.6436 134.005 86.4703 136.487 89.3282C138.152 91.2418 138.788 93.2481 138.29 94.981C137.751 96.8611 136.038 97.9887 134.604 98.762C132.69 99.795 130.681 100.661 128.614 101.36C129.039 101.741 129.517 102.118 130.045 102.497C133.358 104.888 137.628 106.83 143.595 108.36C144.45 107.032 145.346 105.733 146.276 104.453C147.64 102.575 149.298 100.475 151.671 99.3075C154 98.1539 157.428 98.118 159.436 100.302C160.077 101 160.479 101.815 160.602 102.66C160.773 103.818 160.414 105.091 159.571 106.343C157.728 109.104 154.296 110.944 150.386 111.261C148.414 111.422 146.461 111.214 144.61 110.843C134.865 126.388 129.975 144.465 125.225 162.004C125.065 162.589 124.462 162.934 123.876 162.776C123.226 162.698 122.944 162.02 123.102 161.428C127.615 144.768 132.664 126.131 142.367 110.308C136.402 108.68 132.176 106.743 128.756 104.279C127.766 103.564 126.915 102.834 126.202 102.081C121.975 103.211 117.55 103.648 113.191 103.353C115.567 122.006 113.728 141.287 107.851 159.158C107.661 159.728 107.051 160.043 106.478 159.863L106.477 159.863ZM101.643 86.8813L101.623 86.8749C101.28 86.7674 100.777 86.6324 100.375 86.7145C99.6479 86.8634 99.1232 87.7139 98.873 88.2059C97.8182 90.2982 97.8627 92.8816 98.9813 94.9438C100.386 97.5459 103.398 99.3923 107.91 100.382C108.803 100.58 109.712 100.747 110.621 100.877C110.156 97.9853 109.535 95.5025 108.412 93.2221C106.849 90.0478 104.38 87.7393 101.642 86.8811L101.643 86.8813ZM156.403 100.916C155.19 100.536 153.727 100.74 152.637 101.276C150.715 102.225 149.263 104.08 148.05 105.744C147.309 106.762 146.591 107.8 145.898 108.845C147.309 109.076 148.764 109.187 150.206 109.068C153.452 108.806 156.27 107.328 157.744 105.117C158.12 104.563 158.539 103.747 158.427 102.975C158.368 102.572 158.151 102.152 157.816 101.788C157.431 101.367 156.94 101.084 156.403 100.916ZM131.235 88.3304C130.017 87.9488 128.799 87.9969 127.844 88.6958C126.919 89.3697 126.299 90.6122 125.89 92.5981C125.646 93.7891 125.366 95.5623 125.788 97.1733C126.002 97.9965 126.392 98.7964 126.967 99.5806C129.25 98.8764 131.466 97.9575 133.558 96.8256C134.679 96.2239 135.863 95.4598 136.176 94.3712C136.568 93.0321 135.501 91.5397 134.832 90.7708C133.857 89.6501 132.551 88.7433 131.235 88.3311L131.235 88.3304Z" fill="#1E1E1E"/>
</g>
<defs>
<clipPath id="clip0_173_8647">
<rect width="109.974" height="168.889" fill="white" transform="translate(98.8848 23.6841) rotate(17.4021)"/>
</clipPath>
</defs>
</svg>
