<svg width="1440" height="817" viewBox="0 0 1440 817" fill="none" xmlns="http://www.w3.org/2000/svg">
<path fill-rule="evenodd" clip-rule="evenodd" d="M-563.228 667.784L-560.847 668.327C-566.315 705.216 -549.048 738.987 -520.814 745.422L657.933 1014.08C688.341 1021.01 720.558 994.084 729.603 954.397L729.665 954.125C738.703 914.472 721.345 876.209 690.937 869.278L675.203 865.692C675.965 826.514 654.849 792.796 622.293 785.376C613.883 783.459 605.463 783.614 597.426 785.074C601.558 726.094 570.26 673.384 520.883 662.13C515.915 660.998 511.047 660.497 506.118 660.267C507.642 587.886 468.598 525.326 408.016 511.518C394.637 508.468 380.909 508.023 367.819 509.797C353.311 459.984 319.373 421.841 273.878 411.471C228.384 401.102 179.781 421.327 145.072 461.103C133.745 416.201 102.8 380.815 60.3328 371.136C6.63459 358.897 -48.1709 391.409 -75.3348 446.929C-86.0733 440.296 -97.9161 435.521 -110.623 432.625C-177.467 417.39 -247.005 461.749 -283.486 536.288C-291.83 531.094 -300.94 527.229 -310.852 524.97C-364.964 512.637 -420.127 551.615 -436.227 612.339L-487.751 600.596C-518.159 593.665 -550.376 620.594 -559.421 660.281L-559.483 660.553C-559.809 661.981 -560.127 663.376 -560.245 664.851C-561.355 665.779 -562.265 666.787 -563.168 667.762L-563.228 667.784Z" fill="#8AD6FF"/>
<path d="M739.886 -16.3296C736.629 -13.8019 733.286 -10.9138 732.123 -6.92116C730.726 -2.13322 733.258 3.50579 737.735 5.57537C742.212 7.64495 748.063 5.88232 750.703 1.66876C750.95 1.27344 751.177 0.845577 751.232 0.378178C751.413 -1.1961 749.652 -2.25878 748.115 -2.53783C741.827 -3.68424 735.374 1.58039 734.399 7.99143C733.554 13.5444 736.522 19.4834 741.433 22.0692C746.345 24.655 752.835 23.697 756.817 19.795" stroke="#E2F5FF" stroke-width="5" stroke-linecap="round" stroke-linejoin="round"/>
<path d="M808.675 3.9428C806 1.38257 802.749 -1.37067 799.121 -0.766074C794.915 -0.0661382 792.652 5.38452 794.228 9.40509C795.801 13.428 800.117 15.8068 804.363 16.2045C810.697 16.7974 817.232 13.4001 820.459 7.83081C821.608 5.84959 822.364 3.58933 822.343 1.28954C822.302 -3.2519 819.181 -7.33757 815.279 -9.55365C811.377 -11.7721 806.797 -12.4046 802.33 -12.5929C798.068 -12.7743 793.596 -12.5348 789.895 -10.3792C785.73 -7.95147 783.142 -3.417 781.684 1.23141C779.32 8.7563 779.824 17.895 785.396 23.4061C788.043 26.0245 791.558 27.5616 795.128 28.5312C800.603 30.0172 806.483 30.266 811.92 28.6336C817.356 27.0011 822.3 23.3852 825.041 18.3461" stroke="#E2F5FF" stroke-width="5" stroke-linecap="round" stroke-linejoin="round"/>
<path d="M869.842 -21.4873C869.491 -14.2508 870.295 -6.95607 872.212 0.0246832" stroke="#E2F5FF" stroke-width="5" stroke-linecap="round" stroke-linejoin="round"/>
<path d="M848.937 16.4975C863.473 23.5247 881.275 23.1224 895.491 15.4487" stroke="#E2F5FF" stroke-width="5" stroke-linecap="round" stroke-linejoin="round"/>
<path d="M909.729 -5.79554C913.78 -2.57723 917.831 0.638755 921.884 3.85707C926.169 0.406218 930.456 -3.04231 934.74 -6.49315C935.402 -7.02566 936.123 -7.58143 936.966 -7.62096C938.056 -7.6698 938.974 -6.85126 939.76 -6.08621C943.307 -2.63769 946.851 0.813156 950.399 4.26168C946.077 9.131 941.997 14.2212 938.177 19.5068" stroke="#E2F5FF" stroke-width="5" stroke-linecap="round" stroke-linejoin="round"/>
<path d="M911.522 33.5427C912.03 33.7752 912.358 34.2752 912.66 34.7519C917.638 42.6047 922.617 50.4598 927.593 58.3125C920.95 61.2634 914.307 64.212 907.664 67.1629C906.995 67.4605 906.258 67.7628 905.557 67.5559C904.897 67.3629 904.442 66.7676 904.041 66.2002C900.427 61.1053 893.869 52.5084 894.918 45.6649C895.662 40.8072 906.677 31.315 911.522 33.5427Z" stroke="#E2F5FF" stroke-width="5" stroke-linecap="round" stroke-linejoin="round"/>
<path d="M760.777 50.376C764.056 60.9378 767.335 71.4996 770.614 82.0638C762.966 85.6402 755.315 89.2143 747.667 92.7907C754.45 104.071 762.755 114.405 772.277 123.416" stroke="#E2F5FF" stroke-width="5" stroke-linecap="round" stroke-linejoin="round"/>
<path d="M737.987 53.0708C737.175 61.684 732.979 69.9181 726.526 75.5687" stroke="#E2F5FF" stroke-width="5" stroke-linecap="round" stroke-linejoin="round"/>
<path d="M808.787 54.041C812.11 62.2844 817.647 69.5954 824.64 74.9716" stroke="#E2F5FF" stroke-width="5" stroke-linecap="round" stroke-linejoin="round"/>
<path d="M869.45 63.458C864.851 74.3733 859.891 85.1304 854.581 95.7062" stroke="#E2F5FF" stroke-width="5" stroke-linecap="round" stroke-linejoin="round"/>
<path d="M846.143 71.1719C856.759 76.1668 867.1 81.7709 877.098 87.9447" stroke="#E2F5FF" stroke-width="5" stroke-linecap="round" stroke-linejoin="round"/>
<path d="M799.868 112.549C805.52 121.488 811.171 130.427 816.82 139.365C821.428 126.285 831.112 115.128 843.313 108.847" stroke="#E2F5FF" stroke-width="5" stroke-linecap="round" stroke-linejoin="round"/>
<path d="M877.897 126.962C885.564 119.586 894.504 113.579 904.188 109.298" stroke="#E2F5FF" stroke-width="5" stroke-linecap="round" stroke-linejoin="round"/>
<path d="M762.093 156.666C754.568 154.174 745.835 155.306 739.508 160.136C733.18 164.966 729.652 173.521 731.257 181.392C732.864 189.261 739.824 195.844 747.722 196.365C755.546 196.884 762.81 191.884 767.816 185.757" stroke="#E2F5FF" stroke-width="5" stroke-linecap="round" stroke-linejoin="round"/>
<path d="M893.909 179.992C891.303 172.077 884.836 165.582 877.014 163.024C874.982 162.359 872.83 161.947 870.714 162.222C866.869 162.722 863.62 165.433 861.273 168.568C860.011 170.251 858.919 172.163 858.715 174.267C858.179 179.746 864.462 184.138 869.748 182.913C875.033 181.687 878.683 176.43 879.695 171.018C880.096 168.874 880.16 166.642 879.658 164.521C878.046 157.706 870.812 153.483 863.913 153.246C857.016 153.008 850.411 155.878 844.194 158.92" stroke="#E2F5FF" stroke-width="5" stroke-linecap="round" stroke-linejoin="round"/>
<path d="M793.948 192.425C799.984 189.519 806.685 188.042 813.365 188.142C813.614 195.739 813.621 203.345 813.385 210.945C821.583 210.37 829.742 209.224 837.784 207.517" stroke="#E2F5FF" stroke-width="5" stroke-linecap="round" stroke-linejoin="round"/>
<path d="M929.269 114.645C935.531 121.093 940.814 128.522 944.868 136.591" stroke="#E2F5FF" stroke-width="5" stroke-linecap="round" stroke-linejoin="round"/>
<path d="M911.499 146.897C920.583 148.413 929.784 149.934 938.955 149.097C948.124 148.26 957.41 144.795 963.508 137.789" stroke="#E2F5FF" stroke-width="5" stroke-linecap="round" stroke-linejoin="round"/>
<path d="M932.15 90.8255C936.086 93.7183 940.494 96.2785 945.337 96.6901C950.181 97.104 955.512 94.867 957.508 90.3674C960.105 84.5121 955.965 77.4035 950.284 74.5851C946.07 72.4946 940.943 72.1482 936.677 74.1224C932.411 76.0966 929.214 80.5195 929.106 85.2795" stroke="#E2F5FF" stroke-width="5" stroke-linecap="round" stroke-linejoin="round"/>
<path d="M957.25 46.4111C966.149 48.197 974.896 50.7479 983.371 54.029" stroke="#E2F5FF" stroke-width="5" stroke-linecap="round" stroke-linejoin="round"/>
<path d="M974.838 22.5272C983.963 16.3673 993.089 10.2074 1002.21 4.0498" stroke="#E2F5FF" stroke-width="5" stroke-linecap="round" stroke-linejoin="round"/>
<path d="M974.025 4.77295C985.239 9.47717 995.301 16.9834 1003.07 26.443" stroke="#E2F5FF" stroke-width="5" stroke-linecap="round" stroke-linejoin="round"/>
<path d="M1033.28 -1.80322C1035.33 8.90045 1037.39 19.6018 1039.44 30.3055" stroke="#E2F5FF" stroke-width="5" stroke-linecap="round" stroke-linejoin="round"/>
<path d="M1018.83 70.9624C1011.68 71.2321 1004.34 74.5365 1000.59 80.7243C996.838 86.9121 997.715 96.0415 1003.48 100.348C1007.48 103.336 1012.81 103.604 1017.77 103.471C1022.57 103.343 1028.39 102.187 1029.93 97.5716" stroke="#E2F5FF" stroke-width="5" stroke-linecap="round" stroke-linejoin="round"/>
<path d="M1045.03 69.2205C1050.62 61.7305 1056.88 54.7567 1063.72 48.4131" stroke="#E2F5FF" stroke-width="5" stroke-linecap="round" stroke-linejoin="round"/>
<path d="M786.461 162.696C787.342 162.696 788.268 162.307 788.89 161.675C789.486 161.07 789.935 160.077 789.896 159.208C789.857 158.306 789.564 157.371 788.89 156.741C788.219 156.115 787.393 155.72 786.461 155.72C785.579 155.72 784.654 156.108 784.031 156.741C783.408 157.373 782.987 158.338 783.026 159.208C783.065 160.11 783.358 161.045 784.031 161.675C784.702 162.301 785.529 162.696 786.461 162.696Z" fill="#F5EEEB"/>
<path d="M786.461 89.4068C787.342 89.4068 788.267 89.0184 788.89 88.3859C789.486 87.7813 789.934 86.7884 789.896 85.9187C789.857 85.0165 789.564 84.0817 788.89 83.4515C788.219 82.826 787.393 82.4307 786.461 82.4307C785.579 82.4307 784.654 82.819 784.031 83.4515C783.436 84.0561 782.987 85.049 783.026 85.9187C783.065 86.821 783.358 87.7558 784.031 88.3859C784.702 89.0115 785.529 89.4068 786.461 89.4068Z" fill="#F5EEEB"/>
<path d="M842.456 46.4439C843.337 46.4439 844.263 46.0556 844.885 45.4231C845.481 44.8185 845.93 43.8255 845.891 42.9558C845.852 42.0536 845.559 41.1188 844.885 40.4886C844.214 39.8631 843.388 39.4678 842.456 39.4678C841.574 39.4678 840.649 39.8561 840.026 40.4886C839.431 41.0932 838.982 42.0861 839.021 42.9558C839.06 43.8581 839.353 44.7929 840.026 45.4231C840.697 46.0486 841.524 46.4439 842.456 46.4439Z" fill="#F5EEEB"/>
<path d="M1063.95 30.0171C1064.83 30.0171 1065.75 29.6288 1066.38 28.9963C1067 28.3638 1067.42 27.3988 1067.38 26.5291C1067.34 25.6268 1067.05 24.692 1066.38 24.0618C1065.7 23.4363 1064.88 23.041 1063.95 23.041C1063.06 23.041 1062.14 23.4293 1061.52 24.0618C1060.92 24.6664 1060.47 25.6594 1060.51 26.5291C1060.55 27.4313 1060.84 28.3661 1061.52 28.9963C1062.19 29.6218 1063.01 30.0171 1063.95 30.0171Z" fill="#F5EEEB"/>
<path d="M1015.42 52.7618C1016.3 52.7618 1017.22 52.3734 1017.85 51.7409C1018.47 51.1084 1018.89 50.1434 1018.85 49.2737C1018.81 48.3715 1018.52 47.4366 1017.85 46.8065C1017.18 46.1809 1016.35 45.7856 1015.42 45.7856C1014.54 45.7856 1013.61 46.174 1012.99 46.8065C1012.37 47.439 1011.94 48.404 1011.98 49.2737C1012.02 50.1759 1012.31 51.1107 1012.99 51.7409C1013.66 52.3664 1014.49 52.7618 1015.42 52.7618Z" fill="#F5EEEB"/>
<path d="M970.621 115.942C971.503 115.942 972.428 115.554 973.051 114.921C973.673 114.289 974.095 113.324 974.056 112.454C974.017 111.552 973.724 110.617 973.051 109.987C972.38 109.361 971.553 108.966 970.621 108.966C969.739 108.966 968.814 109.354 968.191 109.987C967.569 110.619 967.147 111.584 967.186 112.454C967.225 113.356 967.518 114.291 968.191 114.921C968.862 115.547 969.689 115.942 970.621 115.942Z" fill="#F5EEEB"/>
<path d="M868.587 108.361C869.468 108.361 870.394 107.973 871.016 107.341C871.612 106.736 872.061 105.743 872.022 104.873C871.983 103.971 871.69 103.036 871.016 102.406C870.345 101.781 869.519 101.385 868.587 101.385C867.705 101.385 866.78 101.774 866.157 102.406C865.534 103.039 865.113 104.004 865.152 104.873C865.191 105.776 865.484 106.71 866.157 107.341C866.828 107.966 867.655 108.361 868.587 108.361Z" fill="#F5EEEB"/>
<path d="M912.138 174.067C913.02 174.067 913.945 173.679 914.568 173.046C915.191 172.414 915.612 171.449 915.573 170.579C915.534 169.677 915.241 168.742 914.568 168.112C913.897 167.486 913.07 167.091 912.138 167.091C911.257 167.091 910.332 167.479 909.709 168.112C909.113 168.716 908.665 169.709 908.704 170.579C908.742 171.481 909.036 172.416 909.709 173.046C910.38 173.672 911.206 174.067 912.138 174.067Z" fill="#F5EEEB"/>
<path d="M735.443 123.523C736.325 123.523 737.25 123.135 737.873 122.502C738.496 121.87 738.917 120.905 738.878 120.035C738.839 119.133 738.546 118.198 737.873 117.568C737.202 116.942 736.375 116.547 735.443 116.547C734.562 116.547 733.636 116.935 733.014 117.568C732.391 118.2 731.969 119.165 732.008 120.035C732.047 120.937 732.34 121.872 733.014 122.502C733.685 123.128 734.511 123.523 735.443 123.523Z" fill="#F5EEEB"/>
<path d="M752.863 75.5059C753.745 75.5059 754.67 75.1176 755.293 74.4851C755.916 73.8526 756.337 72.8875 756.298 72.0178C756.259 71.1156 755.966 70.1808 755.293 69.5506C754.622 68.9251 753.795 68.5298 752.863 68.5298C751.982 68.5298 751.056 68.9181 750.434 69.5506C749.811 70.1831 749.389 71.1482 749.428 72.0178C749.467 72.9201 749.76 73.8549 750.434 74.4851C751.104 75.1106 751.931 75.5059 752.863 75.5059Z" fill="#F5EEEB"/>
<path d="M726.732 26.2271C727.614 26.2271 728.539 25.8388 729.162 25.2063C729.757 24.6017 730.206 23.6087 730.167 22.739C730.128 21.8368 729.835 20.902 729.162 20.2718C728.491 19.6463 727.664 19.251 726.732 19.251C725.851 19.251 724.925 19.6393 724.303 20.2718C723.707 20.8764 723.258 21.8693 723.297 22.739C723.336 23.6413 723.629 24.5761 724.303 25.2063C724.973 25.8318 725.8 26.2271 726.732 26.2271Z" fill="#F5EEEB"/>
<path d="M745.309 250.216C749.291 261.842 753.275 273.467 757.257 285.094C767.821 268.47 782.433 254.522 799.424 244.839" stroke="#E2F5FF" stroke-width="5" stroke-linecap="round" stroke-linejoin="round"/>
<path d="M749.109 229.88C764.303 226.209 779.716 223.486 795.238 221.728" stroke="#E2F5FF" stroke-width="5" stroke-linecap="round" stroke-linejoin="round"/>
<path d="M804.13 274.216C802.813 290.235 803.388 306.415 805.838 322.295" stroke="#E2F5FF" stroke-width="5" stroke-linecap="round" stroke-linejoin="round"/>
<path d="M748.07 331.118C737.578 332.652 729.723 344.412 732.242 354.869C734.761 365.324 747.129 372.072 757.09 368.389C762.613 366.347 766.861 361.841 770.679 357.301C774.919 352.26 779.108 345.4 776.252 339.438C775.167 337.171 773.209 335.482 771.306 333.864C765.366 328.813 757.198 323.502 750.509 327.472" stroke="#E2F5FF" stroke-width="5" stroke-linecap="round" stroke-linejoin="round"/>
<path d="M845.268 281.622C841.187 272.76 848.497 261.577 857.922 259.559C867.347 257.54 877.123 262.728 883.416 270.132C886.459 273.713 889.001 278.483 887.673 283.017C887.263 284.415 886.503 285.689 885.564 286.791C881.73 291.279 874.659 292.479 869.596 289.5C864.535 286.522 862.044 279.694 863.977 274.085C865.637 269.267 869.928 265.898 874.32 263.412C881.204 259.517 888.884 257.082 896.727 256.31C903.638 255.629 911.218 256.466 916.37 261.191C918.788 263.41 920.487 266.33 921.806 269.358C924.559 275.669 925.802 282.652 925.402 289.542" stroke="#E2F5FF" stroke-width="5" stroke-linecap="round" stroke-linejoin="round"/>
<path d="M902.601 233.796C904.462 228.125 906.562 222.104 911.25 218.488C920.096 211.663 933.501 216.56 943.386 211.417C953.393 206.21 956.091 193.056 963.462 184.436C970.845 175.799 983.481 172.237 994.193 175.767" stroke="#E2F5FF" stroke-width="5" stroke-linecap="round" stroke-linejoin="round"/>
<path d="M863.507 216.082C864.529 224.106 863.603 232.382 860.835 239.97" stroke="#E2F5FF" stroke-width="5" stroke-linecap="round" stroke-linejoin="round"/>
<path d="M1000.45 142.909C1009.11 145.197 1017.46 148.646 1025.24 153.136" stroke="#E2F5FF" stroke-width="5" stroke-linecap="round" stroke-linejoin="round"/>
<path d="M932.047 188.27C939.86 183.108 947.671 177.948 955.484 172.786" stroke="#E2F5FF" stroke-width="5" stroke-linecap="round" stroke-linejoin="round"/>
<path d="M983.27 221.004C987.652 228.873 992.848 236.275 998.743 243.049" stroke="#E2F5FF" stroke-width="5" stroke-linecap="round" stroke-linejoin="round"/>
<path d="M1005.31 207.345C1010.7 214.507 1016.09 221.667 1021.48 228.829" stroke="#E2F5FF" stroke-width="5" stroke-linecap="round" stroke-linejoin="round"/>
<path d="M1038.78 199.595C1039.02 221.486 1038.52 245.53 1024.37 262.047" stroke="#E2F5FF" stroke-width="5" stroke-linecap="round" stroke-linejoin="round"/>
<path d="M938.255 258.98C946.453 256.49 954.364 253.025 961.775 248.681" stroke="#E2F5FF" stroke-width="5" stroke-linecap="round" stroke-linejoin="round"/>
<path d="M948.802 233.778C948.431 245.8 952.42 257.913 959.835 267.291" stroke="#E2F5FF" stroke-width="5" stroke-linecap="round" stroke-linejoin="round"/>
<path d="M1031.65 177.08C1045.26 172.604 1058.86 168.128 1072.46 163.651" stroke="#E2F5FF" stroke-width="5" stroke-linecap="round" stroke-linejoin="round"/>
<path d="M1061.53 107.722C1051.27 110.38 1043.43 120.653 1043.45 131.413C1043.46 134.61 1044.16 137.947 1046.2 140.384C1047.91 142.43 1050.41 143.646 1052.94 144.411C1062.47 147.286 1073.52 144.011 1080.03 136.382" stroke="#E2F5FF" stroke-width="5" stroke-linecap="round" stroke-linejoin="round"/>
<path d="M1095.09 80.5545C1089.11 79.5639 1083 77.7105 1078.57 73.5086C1074.13 69.309 1071.87 62.2654 1074.61 56.7706C1076.61 52.7524 1080.72 50.3456 1084.68 48.3109C1091.95 44.5671 1099.85 41.2185 1107.97 41.9185C1116.09 42.6184 1124.29 48.6388 1124.91 56.8892" stroke="#E2F5FF" stroke-width="5" stroke-linecap="round" stroke-linejoin="round"/>
<path d="M1125.01 19.0111C1129.53 12.3187 1135.41 6.57967 1142.18 2.26611" stroke="#E2F5FF" stroke-width="5" stroke-linecap="round" stroke-linejoin="round"/>
<path d="M1115.01 99.834C1111.68 109.621 1109.51 119.816 1108.57 130.127" stroke="#E2F5FF" stroke-width="5" stroke-linecap="round" stroke-linejoin="round"/>
<path d="M1110 172.06C1103.07 172.658 1096 173.955 1090.05 177.636C1086.3 179.962 1083.1 183.201 1080.8 187.003C1076.78 193.665 1075.71 202.427 1079.22 209.385C1082.73 216.342 1091.26 220.674 1098.56 218.209C1105.87 215.747 1110.09 205.903 1105.99 199.283C1105.41 198.339 1104.7 197.483 1103.91 196.704C1097.29 190.137 1086.16 189.935 1078.13 194.598C1070.09 199.26 1064.88 207.843 1062.09 216.802C1059.73 224.355 1058.93 232.754 1061.89 240.082C1064.86 247.409 1072.32 253.197 1080.07 252.29" stroke="#E2F5FF" stroke-width="5" stroke-linecap="round" stroke-linejoin="round"/>
<path d="M1131.15 141.514C1132.33 149.106 1133.5 156.698 1134.68 164.291" stroke="#E2F5FF" stroke-width="5" stroke-linecap="round" stroke-linejoin="round"/>
<path d="M1153.41 154.146C1152.63 167.107 1144.1 179.276 1132.3 184.261" stroke="#E2F5FF" stroke-width="5" stroke-linecap="round" stroke-linejoin="round"/>
<path d="M1161.15 85.9653C1158.28 94.8227 1155.41 103.68 1152.55 112.537" stroke="#E2F5FF" stroke-width="5" stroke-linecap="round" stroke-linejoin="round"/>
<path d="M1142.3 91.0278C1151.83 97.3714 1161.35 103.717 1170.87 110.061" stroke="#E2F5FF" stroke-width="5" stroke-linecap="round" stroke-linejoin="round"/>
<path d="M1158.44 50.471C1159.25 46.0179 1160.15 41.4811 1162.37 37.5559C1164.6 33.6307 1168.41 30.3589 1172.86 29.9961C1178.62 29.5264 1183.86 34.105 1186.11 39.5092C1188.37 44.9133 1188.3 50.9872 1188.17 56.8541" stroke="#E2F5FF" stroke-width="5" stroke-linecap="round" stroke-linejoin="round"/>
<path d="M926.877 345.216C911.692 335.22 890.737 337.419 875.633 347.542C867.371 353.078 860.134 361.708 859.988 371.758C859.853 380.997 866.303 389.787 874.891 392.845C883.478 395.9 893.59 393.354 900.199 387.001C904.547 382.415 904.268 374.618 900.721 369.37C897.176 364.119 891.103 361.134 884.975 359.789C868.804 356.239 850.844 363.575 841.597 377.506C836.697 384.892 834.217 393.635 832.239 402.311C830.569 409.631 829.204 417.277 830.817 424.611C832.429 431.946 837.718 438.922 845 440.257" stroke="#E2F5FF" stroke-width="5" stroke-linecap="round" stroke-linejoin="round"/>
<path d="M811.206 363.808C805.035 372.688 798.863 381.571 792.694 390.452" stroke="#E2F5FF" stroke-width="5" stroke-linecap="round" stroke-linejoin="round"/>
<path d="M739.191 437.091C749.979 438.749 760.767 440.405 771.557 442.063" stroke="#E2F5FF" stroke-width="5" stroke-linecap="round" stroke-linejoin="round"/>
<path d="M961.791 326.162C965.587 329.104 969.384 332.048 973.181 334.989C978.741 332.534 984.516 329.478 987.431 324.079C992.205 315.24 985.411 302.453 975.514 301.653C965.617 300.853 956.915 312.384 960.252 321.881" stroke="#E2F5FF" stroke-width="5" stroke-linecap="round" stroke-linejoin="round"/>
<path d="M1032.84 293.149C1034.07 303.199 1034.49 313.354 1034.08 323.476" stroke="#E2F5FF" stroke-width="5" stroke-linecap="round" stroke-linejoin="round"/>
<path d="M1051.48 291.891C1054.65 301.372 1057.04 311.122 1058.62 321.005" stroke="#E2F5FF" stroke-width="5" stroke-linecap="round" stroke-linejoin="round"/>
<path d="M1003.21 339.412C1017.33 346.53 1033.29 349.839 1049.02 348.909" stroke="#E2F5FF" stroke-width="5" stroke-linecap="round" stroke-linejoin="round"/>
<path d="M958.326 388.303C952.125 393.477 945.282 400.253 946.579 408.296C947.65 414.951 954.685 419.57 961.303 419.037C967.923 418.505 973.705 413.698 976.817 407.74C978.855 403.841 979.863 398.962 977.818 395.065C974.431 388.607 965.466 388.624 958.317 389.528" stroke="#E2F5FF" stroke-width="5" stroke-linecap="round" stroke-linejoin="round"/>
<path d="M1251.77 848.063C1251.26 847.831 1250.94 847.331 1250.63 846.854C1245.66 839.001 1240.68 831.146 1235.7 823.294C1242.35 820.343 1248.99 817.394 1255.63 814.443C1256.3 814.145 1257.04 813.843 1257.74 814.05C1258.4 814.243 1258.85 814.838 1259.25 815.406C1262.87 820.501 1269.43 829.098 1268.38 835.941C1267.63 840.799 1256.62 850.291 1251.77 848.063Z" stroke="#E2F5FF" stroke-width="5" stroke-linecap="round" stroke-linejoin="round"/>
<path d="M1402.52 831.228C1399.24 820.666 1395.96 810.104 1392.68 799.54C1400.33 795.964 1407.98 792.389 1415.63 788.813C1408.85 777.533 1400.54 767.199 1391.02 758.188" stroke="#E2F5FF" stroke-width="5" stroke-linecap="round" stroke-linejoin="round"/>
<path d="M1425.31 828.535C1426.12 819.921 1430.32 811.687 1436.77 806.037" stroke="#E2F5FF" stroke-width="5" stroke-linecap="round" stroke-linejoin="round"/>
<path d="M1354.51 827.563C1351.19 819.319 1345.65 812.008 1338.66 806.632" stroke="#E2F5FF" stroke-width="5" stroke-linecap="round" stroke-linejoin="round"/>
<path d="M1293.85 818.145C1298.44 807.23 1303.4 796.473 1308.71 785.897" stroke="#E2F5FF" stroke-width="5" stroke-linecap="round" stroke-linejoin="round"/>
<path d="M1317.15 810.434C1306.54 805.439 1296.2 799.835 1286.2 793.661" stroke="#E2F5FF" stroke-width="5" stroke-linecap="round" stroke-linejoin="round"/>
<path d="M1363.43 769.054C1357.78 760.115 1352.12 751.177 1346.47 742.238C1341.87 755.318 1332.18 766.475 1319.98 772.756" stroke="#E2F5FF" stroke-width="5" stroke-linecap="round" stroke-linejoin="round"/>
<path d="M1285.4 754.644C1277.73 762.02 1268.79 768.027 1259.11 772.308" stroke="#E2F5FF" stroke-width="5" stroke-linecap="round" stroke-linejoin="round"/>
<path d="M1401.2 724.94C1408.73 727.433 1417.46 726.3 1423.79 721.47C1430.11 716.641 1433.64 708.086 1432.04 700.214C1430.43 692.345 1423.47 685.762 1415.57 685.241C1407.75 684.723 1400.49 689.722 1395.48 695.849" stroke="#E2F5FF" stroke-width="5" stroke-linecap="round" stroke-linejoin="round"/>
<path d="M1269.39 701.611C1271.99 709.527 1278.46 716.022 1286.28 718.58C1288.31 719.245 1290.47 719.656 1292.58 719.382C1296.43 718.882 1299.68 716.171 1302.02 713.036C1303.29 711.352 1304.38 709.441 1304.58 707.336C1305.12 701.858 1298.83 697.465 1293.55 698.691C1288.26 699.916 1284.61 705.174 1283.6 710.585C1283.2 712.729 1283.14 714.961 1283.64 717.082C1285.25 723.898 1292.48 728.121 1299.38 728.358C1306.28 728.595 1312.88 725.725 1319.1 722.684" stroke="#E2F5FF" stroke-width="5" stroke-linecap="round" stroke-linejoin="round"/>
<path d="M1369.35 689.18C1363.31 692.087 1356.61 693.563 1349.93 693.463C1349.68 685.866 1349.67 678.26 1349.91 670.661C1341.71 671.235 1333.55 672.381 1325.51 674.088" stroke="#E2F5FF" stroke-width="5" stroke-linecap="round" stroke-linejoin="round"/>
<path d="M1234.03 766.961C1227.76 760.513 1222.48 753.084 1218.43 745.015" stroke="#E2F5FF" stroke-width="5" stroke-linecap="round" stroke-linejoin="round"/>
<path d="M1251.8 734.709C1242.71 733.192 1233.51 731.672 1224.34 732.509C1215.17 733.346 1205.89 736.811 1199.79 743.817" stroke="#E2F5FF" stroke-width="5" stroke-linecap="round" stroke-linejoin="round"/>
<path d="M1231.15 790.78C1227.21 787.888 1222.8 785.327 1217.96 784.916C1213.11 784.504 1207.78 786.739 1205.79 791.239C1203.19 797.094 1207.33 804.202 1213.01 807.021C1217.23 809.111 1222.35 809.458 1226.62 807.484C1230.88 805.509 1234.08 801.086 1234.19 796.326" stroke="#E2F5FF" stroke-width="5" stroke-linecap="round" stroke-linejoin="round"/>
<path d="M1144.47 810.643C1151.62 810.374 1158.95 807.069 1162.7 800.882C1166.46 794.694 1165.58 785.564 1159.81 781.258C1155.81 778.27 1150.49 778.002 1145.53 778.135C1140.73 778.263 1134.9 779.418 1133.37 784.034" stroke="#E2F5FF" stroke-width="5" stroke-linecap="round" stroke-linejoin="round"/>
<path d="M1118.27 812.383C1112.67 819.873 1106.41 826.847 1099.58 833.19" stroke="#E2F5FF" stroke-width="5" stroke-linecap="round" stroke-linejoin="round"/>
<path d="M1376.83 725.886C1377.72 725.886 1378.64 725.498 1379.26 724.865C1379.89 724.233 1380.31 723.268 1380.27 722.398C1380.23 721.496 1379.94 720.561 1379.26 719.931C1378.59 719.305 1377.77 718.91 1376.83 718.91C1375.95 718.91 1375.03 719.298 1374.41 719.931C1373.81 720.536 1373.36 721.529 1373.4 722.398C1373.44 723.3 1373.73 724.235 1374.41 724.865C1375.08 725.491 1375.9 725.886 1376.83 725.886Z" fill="#F5EEEB"/>
<path d="M1376.83 799.175C1377.72 799.175 1378.64 798.786 1379.26 798.154C1379.89 797.521 1380.31 796.556 1380.27 795.687C1380.23 794.785 1379.94 793.85 1379.26 793.22C1378.59 792.594 1377.77 792.199 1376.83 792.199C1375.95 792.199 1375.03 792.587 1374.41 793.22C1373.81 793.824 1373.36 794.817 1373.4 795.687C1373.44 796.589 1373.73 797.524 1374.41 798.154C1375.08 798.779 1375.9 799.175 1376.83 799.175Z" fill="#F5EEEB"/>
<path d="M1192.67 772.64C1193.56 772.64 1194.48 772.251 1195.1 771.619C1195.7 771.014 1196.15 770.021 1196.11 769.152C1196.07 768.249 1195.78 767.315 1195.1 766.684C1194.43 766.059 1193.61 765.664 1192.67 765.664C1191.79 765.664 1190.87 766.052 1190.25 766.684C1189.62 767.317 1189.2 768.282 1189.24 769.152C1189.28 770.054 1189.57 770.989 1190.25 771.619C1190.92 772.244 1191.74 772.64 1192.67 772.64Z" fill="#F5EEEB"/>
<path d="M1294.71 780.221C1295.59 780.221 1296.52 779.832 1297.14 779.2C1297.76 778.567 1298.18 777.602 1298.14 776.733C1298.1 775.83 1297.81 774.896 1297.14 774.265C1296.47 773.64 1295.64 773.245 1294.71 773.245C1293.83 773.245 1292.9 773.633 1292.28 774.265C1291.66 774.898 1291.24 775.863 1291.27 776.733C1291.31 777.635 1291.61 778.57 1292.28 779.2C1292.95 779.825 1293.78 780.221 1294.71 780.221Z" fill="#F5EEEB"/>
<path d="M1251.16 714.513C1252.04 714.513 1252.96 714.124 1253.59 713.492C1254.21 712.859 1254.63 711.894 1254.59 711.025C1254.55 710.122 1254.26 709.188 1253.59 708.557C1252.92 707.932 1252.09 707.537 1251.16 707.537C1250.28 707.537 1249.35 707.925 1248.73 708.557C1248.1 709.19 1247.68 710.155 1247.72 711.025C1247.76 711.927 1248.05 712.862 1248.73 713.492C1249.4 714.117 1250.23 714.513 1251.16 714.513Z" fill="#F5EEEB"/>
<path d="M1427.85 765.057C1428.74 765.057 1429.66 764.669 1430.28 764.036C1430.91 763.404 1431.33 762.439 1431.29 761.569C1431.25 760.667 1430.96 759.732 1430.28 759.102C1429.61 758.476 1428.79 758.081 1427.85 758.081C1426.97 758.081 1426.05 758.469 1425.42 759.102C1424.8 759.734 1424.38 760.699 1424.42 761.569C1424.46 762.471 1424.75 763.406 1425.42 764.036C1426.1 764.662 1426.92 765.057 1427.85 765.057Z" fill="#F5EEEB"/>
<path d="M1410.43 813.073C1411.31 813.073 1412.24 812.685 1412.86 812.052C1413.48 811.42 1413.91 810.455 1413.87 809.585C1413.83 808.683 1413.54 807.748 1412.86 807.118C1412.19 806.493 1411.36 806.097 1410.43 806.097C1409.55 806.097 1408.63 806.486 1408 807.118C1407.38 807.751 1406.96 808.716 1407 809.585C1407.04 810.487 1407.33 811.422 1408 812.052C1408.67 812.678 1409.5 813.073 1410.43 813.073Z" fill="#F5EEEB"/>
<path d="M1417.99 631.388C1414.01 619.761 1410.02 608.137 1406.04 596.51C1395.48 613.134 1380.86 627.081 1363.87 636.764" stroke="#E2F5FF" stroke-width="5" stroke-linecap="round" stroke-linejoin="round"/>
<path d="M1414.18 651.723C1398.99 655.395 1383.58 658.118 1368.06 659.876" stroke="#E2F5FF" stroke-width="5" stroke-linecap="round" stroke-linejoin="round"/>
<path d="M1359.17 607.39C1360.48 591.37 1359.91 575.19 1357.46 559.311" stroke="#E2F5FF" stroke-width="5" stroke-linecap="round" stroke-linejoin="round"/>
<path d="M1415.23 550.486C1425.72 548.951 1433.57 537.192 1431.05 526.734C1428.54 516.28 1416.17 509.531 1406.21 513.215C1400.68 515.256 1396.44 519.763 1392.62 524.302C1388.38 529.344 1384.19 536.203 1387.04 542.166C1388.13 544.433 1390.09 546.121 1391.99 547.74C1397.93 552.79 1406.1 558.101 1412.79 554.132" stroke="#E2F5FF" stroke-width="5" stroke-linecap="round" stroke-linejoin="round"/>
<path d="M1318.03 599.983C1322.11 608.845 1314.8 620.028 1305.37 622.047C1295.95 624.065 1286.17 618.877 1279.88 611.473C1276.84 607.892 1274.29 603.123 1275.62 598.588C1276.03 597.191 1276.79 595.916 1277.73 594.814C1281.56 590.326 1288.64 589.126 1293.7 592.105C1298.76 595.084 1301.25 601.911 1299.32 607.52C1297.66 612.338 1293.37 615.708 1288.98 618.193C1282.09 622.088 1274.41 624.523 1266.57 625.295C1259.66 625.976 1252.08 625.139 1246.93 620.414C1244.51 618.196 1242.81 615.275 1241.49 612.247C1238.74 605.936 1237.49 598.953 1237.89 592.063" stroke="#E2F5FF" stroke-width="5" stroke-linecap="round" stroke-linejoin="round"/>
<path d="M1260.69 647.807C1258.83 653.479 1256.73 659.499 1252.04 663.115C1243.2 669.94 1229.79 665.043 1219.91 670.186C1209.9 675.393 1207.2 688.548 1199.83 697.168C1192.45 705.804 1179.81 709.367 1169.1 705.837" stroke="#E2F5FF" stroke-width="5" stroke-linecap="round" stroke-linejoin="round"/>
<path d="M1299.79 665.522C1298.77 657.497 1299.69 649.221 1302.46 641.633" stroke="#E2F5FF" stroke-width="5" stroke-linecap="round" stroke-linejoin="round"/>
<path d="M1162.84 738.697C1154.19 736.409 1145.83 732.96 1138.06 728.47" stroke="#E2F5FF" stroke-width="5" stroke-linecap="round" stroke-linejoin="round"/>
<path d="M1231.25 693.336C1223.43 698.498 1215.62 703.658 1207.81 708.821" stroke="#E2F5FF" stroke-width="5" stroke-linecap="round" stroke-linejoin="round"/>
<path d="M1180.02 660.599C1175.64 652.73 1170.45 645.328 1164.55 638.555" stroke="#E2F5FF" stroke-width="5" stroke-linecap="round" stroke-linejoin="round"/>
<path d="M1157.99 674.259C1152.6 667.096 1147.21 659.937 1141.82 652.774" stroke="#E2F5FF" stroke-width="5" stroke-linecap="round" stroke-linejoin="round"/>
<path d="M1124.51 682.009C1124.28 660.118 1124.78 636.074 1138.93 619.557" stroke="#E2F5FF" stroke-width="5" stroke-linecap="round" stroke-linejoin="round"/>
<path d="M1225.04 622.624C1216.84 625.114 1208.93 628.579 1201.52 632.923" stroke="#E2F5FF" stroke-width="5" stroke-linecap="round" stroke-linejoin="round"/>
<path d="M1214.49 647.828C1214.86 635.806 1210.87 623.693 1203.46 614.315" stroke="#E2F5FF" stroke-width="5" stroke-linecap="round" stroke-linejoin="round"/>
<path d="M1131.64 704.525C1118.04 709.002 1104.44 713.478 1090.83 717.954" stroke="#E2F5FF" stroke-width="5" stroke-linecap="round" stroke-linejoin="round"/>
<path d="M1101.76 773.882C1112.03 771.224 1119.87 760.95 1119.85 750.191C1119.84 746.993 1119.14 743.657 1117.1 741.22C1115.38 739.173 1112.89 737.957 1110.35 737.192C1100.83 734.318 1089.78 737.592 1083.27 745.222" stroke="#E2F5FF" stroke-width="5" stroke-linecap="round" stroke-linejoin="round"/>
<path d="M1068.2 801.051C1074.19 802.042 1080.29 803.895 1084.73 808.097C1089.16 812.297 1091.42 819.34 1088.69 824.835C1086.69 828.853 1082.57 831.26 1078.62 833.295C1071.35 837.039 1063.45 840.387 1055.33 839.687C1047.21 838.987 1039 832.967 1038.38 824.717" stroke="#E2F5FF" stroke-width="5" stroke-linecap="round" stroke-linejoin="round"/>
<path d="M1048.28 781.769C1051.62 771.982 1053.78 761.787 1054.73 751.477" stroke="#E2F5FF" stroke-width="5" stroke-linecap="round" stroke-linejoin="round"/>
<path d="M1053.29 709.543C1060.23 708.943 1067.3 707.648 1073.24 703.967C1076.99 701.642 1080.19 698.403 1082.49 694.601C1086.52 687.938 1087.59 679.176 1084.08 672.219C1080.56 665.261 1072.04 660.929 1064.73 663.394C1057.42 665.859 1053.21 675.7 1057.3 682.32C1057.88 683.264 1058.6 684.12 1059.38 684.899C1066 691.466 1077.13 691.668 1085.17 687.006C1093.2 682.343 1098.42 673.761 1101.21 664.801C1103.56 657.248 1104.37 648.849 1101.4 641.522C1098.44 634.197 1090.97 628.407 1083.22 629.314" stroke="#E2F5FF" stroke-width="5" stroke-linecap="round" stroke-linejoin="round"/>
<path d="M1032.15 740.089L1028.62 717.312" stroke="#E2F5FF" stroke-width="5" stroke-linecap="round" stroke-linejoin="round"/>
<path d="M1009.89 727.461C1010.66 714.499 1019.19 702.33 1031 697.345" stroke="#E2F5FF" stroke-width="5" stroke-linecap="round" stroke-linejoin="round"/>
<path d="M1002.15 795.638C1005.02 786.781 1007.88 777.923 1010.75 769.066" stroke="#E2F5FF" stroke-width="5" stroke-linecap="round" stroke-linejoin="round"/>
<path d="M1020.99 790.576C1011.47 784.232 1001.95 777.886 992.423 771.542" stroke="#E2F5FF" stroke-width="5" stroke-linecap="round" stroke-linejoin="round"/>
<path d="M1236.42 536.389C1251.6 546.386 1272.56 544.186 1287.66 534.064C1295.92 528.527 1303.16 519.898 1303.31 509.848C1303.44 500.609 1296.99 491.819 1288.4 488.761C1279.82 485.706 1269.71 488.252 1263.1 494.605C1258.75 499.19 1259.03 506.987 1262.57 512.236C1266.12 517.486 1272.19 520.472 1278.32 521.816C1294.49 525.367 1312.45 518.03 1321.7 504.099C1326.6 496.714 1329.08 487.97 1331.06 479.294C1332.73 471.974 1334.09 464.328 1332.48 456.994C1330.87 449.66 1325.58 442.684 1318.3 441.349" stroke="#E2F5FF" stroke-width="5" stroke-linecap="round" stroke-linejoin="round"/>
<path d="M1352.09 517.798C1358.26 508.918 1364.43 500.035 1370.6 491.154" stroke="#E2F5FF" stroke-width="5" stroke-linecap="round" stroke-linejoin="round"/>
<path d="M1424.1 444.514C1413.32 442.856 1402.53 441.2 1391.74 439.542" stroke="#E2F5FF" stroke-width="5" stroke-linecap="round" stroke-linejoin="round"/>
<path d="M1201.5 555.441C1197.71 552.5 1193.91 549.556 1190.11 546.614C1184.55 549.07 1178.78 552.125 1175.86 557.525C1171.09 566.364 1177.88 579.151 1187.78 579.951C1197.68 580.751 1206.38 569.219 1203.04 559.722" stroke="#E2F5FF" stroke-width="5" stroke-linecap="round" stroke-linejoin="round"/>
<path d="M1130.46 588.457C1129.22 578.407 1128.8 568.252 1129.21 558.129" stroke="#E2F5FF" stroke-width="5" stroke-linecap="round" stroke-linejoin="round"/>
<path d="M1111.81 589.713C1108.64 580.232 1106.25 570.482 1104.67 560.599" stroke="#E2F5FF" stroke-width="5" stroke-linecap="round" stroke-linejoin="round"/>
<path d="M1160.08 542.193C1145.97 535.075 1130.01 531.766 1114.27 532.697" stroke="#E2F5FF" stroke-width="5" stroke-linecap="round" stroke-linejoin="round"/>
<path d="M1204.97 493.302C1211.17 488.129 1218.01 481.352 1216.72 473.309C1215.64 466.654 1208.61 462.036 1201.99 462.568C1195.37 463.101 1189.59 467.907 1186.48 473.865C1184.44 477.764 1183.43 482.643 1185.48 486.54C1188.86 492.998 1197.83 492.982 1204.98 492.077" stroke="#E2F5FF" stroke-width="5" stroke-linecap="round" stroke-linejoin="round"/>
<path d="M889.718 813.792C899.672 819.308 910.128 823.889 920.909 827.463" stroke="#E2F5FF" stroke-width="5" stroke-linecap="round" stroke-linejoin="round"/>
<path d="M914.698 802.435C907.254 812.143 900.956 822.759 895.987 833.979" stroke="#E2F5FF" stroke-width="5" stroke-linecap="round" stroke-linejoin="round"/>
<path d="M934.795 715.185C935.024 726.14 935.253 737.095 935.482 748.049" stroke="#E2F5FF" stroke-width="5" stroke-linecap="round" stroke-linejoin="round"/>
<path d="M956.969 710.131C958.027 722.421 959.609 734.664 961.716 746.814" stroke="#E2F5FF" stroke-width="5" stroke-linecap="round" stroke-linejoin="round"/>
<path d="M902.192 765.875C912.364 766.096 921.922 770.996 932.053 771.963C948.124 773.496 964.657 763.929 971.552 749.109" stroke="#E2F5FF" stroke-width="5" stroke-linecap="round" stroke-linejoin="round"/>
<path d="M973.171 680.953C973.867 688.206 981.941 693.173 989.01 691.924C996.079 690.675 1001.62 684.585 1004.08 677.737C1005.81 672.893 1005.83 666.568 1001.71 663.562C1000.19 662.45 998.307 661.971 996.462 661.613C992.008 660.748 987.32 660.471 983.006 661.883C978.69 663.294 974.799 666.638 973.624 671.084" stroke="#E2F5FF" stroke-width="5" stroke-linecap="round" stroke-linejoin="round"/>
<path d="M837.558 782.06C843.887 787.317 850.933 791.685 858.428 794.998C860.548 781.572 863.734 768.319 867.943 755.411" stroke="#E2F5FF" stroke-width="5" stroke-linecap="round" stroke-linejoin="round"/>
<path d="M808.563 822.805C803.889 816.629 795.806 813.311 788.217 814.453C780.628 815.597 773.843 821.154 771.134 828.442C769.462 832.942 769.616 838.736 773.312 841.743C774.921 843.052 776.982 843.645 779.018 843.978C783.479 844.706 788.356 844.213 791.975 841.466C795.593 838.718 797.436 833.325 795.27 829.3C794.226 827.361 792.426 825.947 790.509 824.898C780.404 819.364 766.943 823.596 759.643 832.595C752.343 841.594 750.463 854.142 752.05 865.69" stroke="#E2F5FF" stroke-width="5" stroke-linecap="round" stroke-linejoin="round"/>
<path d="M738.162 797.298C737.504 791.078 737.15 784.693 738.746 778.651C740.342 772.61 744.186 766.89 749.879 764.501C756 761.934 762.948 763.555 769.563 763.229C783.328 762.553 796.14 752.333 800.045 738.913C801.315 734.548 801.751 729.851 804.004 725.917C806.484 721.582 810.83 718.754 815.016 716.092C818.797 713.687 822.71 711.23 827.114 710.502C831.517 709.772 836.583 711.206 838.872 715.097" stroke="#E2F5FF" stroke-width="5" stroke-linecap="round" stroke-linejoin="round"/>
<path d="M835.7 693.528C826.204 689.071 814.912 688.724 805.168 692.594C795.425 696.463 787.36 704.495 783.359 714.313C780.181 722.117 778.64 731.969 771.129 735.592C765.397 738.357 758.656 736.094 752.312 736.292C740.829 736.648 730.338 746.405 728.98 757.99" stroke="#E2F5FF" stroke-width="5" stroke-linecap="round" stroke-linejoin="round"/>
<path d="M884.54 721.063C889.418 716.775 894.362 712.415 897.925 706.955C901.488 701.493 903.563 694.696 902.086 688.318C899.695 677.998 887.728 671.631 877.613 674.251C867.499 676.872 860.214 687.048 859.427 697.617" stroke="#E2F5FF" stroke-width="5" stroke-linecap="round" stroke-linejoin="round"/>
<path d="M922.116 645.533C927.816 645.949 933.634 646.093 939.144 644.554C944.654 643.015 949.879 639.573 952.428 634.38C954.919 629.304 954.553 623.102 952.318 617.903C948.769 609.643 940.504 603.688 931.654 603.014C922.805 602.339 913.758 606.976 909.034 614.606C907.6 616.922 906.524 619.626 906.854 622.34C907.637 628.762 915.391 631.585 921.761 631.455C925.049 631.388 928.473 630.851 931.148 628.909C933.822 626.967 935.503 623.305 934.347 620.177C932.551 615.326 926.059 614.896 920.971 615.312C919.215 615.457 916.929 616.145 916.957 617.935" stroke="#E2F5FF" stroke-width="5" stroke-linecap="round" stroke-linejoin="round"/>
<path d="M1003.8 625.786C1008.91 611.89 1017.75 599.426 1029.1 590.089" stroke="#E2F5FF" stroke-width="5" stroke-linecap="round" stroke-linejoin="round"/>
<path d="M1029.06 641.731C1038.68 638.894 1047.47 633.199 1054.06 625.53" stroke="#E2F5FF" stroke-width="5" stroke-linecap="round" stroke-linejoin="round"/>
<path d="M1076.59 606.552C1079.31 589.856 1068.4 571.97 1052.47 567.007" stroke="#E2F5FF" stroke-width="5" stroke-linecap="round" stroke-linejoin="round"/>
<path d="M973.293 568.603C973.749 577.339 976.29 585.957 980.637 593.51C986.112 585.746 993.344 579.267 1001.61 574.719" stroke="#E2F5FF" stroke-width="5" stroke-linecap="round" stroke-linejoin="round"/>
<path d="M836.269 644.487C846.594 638.131 857.32 632.448 868.362 627.483" stroke="#E2F5FF" stroke-width="5" stroke-linecap="round" stroke-linejoin="round"/>
<path d="M792.672 638.105C788.905 647.358 785.138 656.611 781.373 665.863" stroke="#E2F5FF" stroke-width="5" stroke-linecap="round" stroke-linejoin="round"/>
<path d="M746.985 636.88C745.325 654.069 743.9 671.284 742.712 688.515C751.901 688.534 761.091 688.55 770.28 688.569" stroke="#E2F5FF" stroke-width="5" stroke-linecap="round" stroke-linejoin="round"/>
<path d="M730.467 581.213C752.315 581.771 774.202 580.786 795.917 578.26C795.079 569.163 794.241 560.064 793.405 550.967" stroke="#E2F5FF" stroke-width="5" stroke-linecap="round" stroke-linejoin="round"/>
<path d="M826.417 590.168C820.241 601.83 815.066 614.038 810.965 626.609" stroke="#E2F5FF" stroke-width="5" stroke-linecap="round" stroke-linejoin="round"/>
<path d="M805.199 596.324C815.724 605.386 828.112 612.206 841.332 616.217" stroke="#E2F5FF" stroke-width="5" stroke-linecap="round" stroke-linejoin="round"/>
<path d="M816.429 482.681C817.111 493.263 820.054 503.69 824.993 513.036" stroke="#E2F5FF" stroke-width="5" stroke-linecap="round" stroke-linejoin="round"/>
<path d="M803.836 497.609C814.626 495.535 825.416 493.461 836.206 491.387" stroke="#E2F5FF" stroke-width="5" stroke-linecap="round" stroke-linejoin="round"/>
<path d="M738.01 487.717C740.183 494.847 742.356 501.976 744.531 509.104" stroke="#E2F5FF" stroke-width="5" stroke-linecap="round" stroke-linejoin="round"/>
<path d="M730.422 528.9C737.832 530.43 745.501 531.96 752.893 530.337C760.285 528.714 767.374 523.056 768.258 515.429" stroke="#E2F5FF" stroke-width="5" stroke-linecap="round" stroke-linejoin="round"/>
<path d="M761.569 487.88C767.333 488.017 773.099 488.154 778.863 488.291C781.114 483.341 783.385 477.618 781.208 472.635C778.689 466.877 770.562 465.133 765.313 468.491C760.065 471.849 757.905 478.946 759.162 485.115" stroke="#E2F5FF" stroke-width="5" stroke-linecap="round" stroke-linejoin="round"/>
<path d="M741.647 606.558C749.532 610.339 757.418 614.12 765.302 617.901" stroke="#E2F5FF" stroke-width="5" stroke-linecap="round" stroke-linejoin="round"/>
<path d="M878.563 434.678L870.956 458.641" stroke="#E2F5FF" stroke-width="5" stroke-linecap="round" stroke-linejoin="round"/>
<path d="M878.717 539.575C877.045 550.946 875.374 562.315 873.702 573.686" stroke="#E2F5FF" stroke-width="5" stroke-linecap="round" stroke-linejoin="round"/>
<path d="M908.09 554.258C917.689 547.288 927.286 540.319 936.886 533.348C940.424 530.778 944.172 527.925 945.503 523.721C946.251 521.356 946.137 518.782 945.592 516.361C944.328 510.766 940.701 505.764 935.814 502.881" stroke="#E2F5FF" stroke-width="5" stroke-linecap="round" stroke-linejoin="round"/>
<path d="M975.624 541.012C992.622 538.843 1009.62 536.675 1026.62 534.506" stroke="#E2F5FF" stroke-width="5" stroke-linecap="round" stroke-linejoin="round"/>
<path d="M989.588 466.254C989.941 480.341 994.445 494.294 1002.37 505.858" stroke="#E2F5FF" stroke-width="5" stroke-linecap="round" stroke-linejoin="round"/>
<path d="M922.031 470.205C913.265 469.054 904.172 467.931 895.741 470.617C887.307 473.302 879.718 480.941 879.991 489.913C880.313 500.493 890.879 507.795 901.001 510.322" stroke="#E2F5FF" stroke-width="5" stroke-linecap="round" stroke-linejoin="round"/>
<path d="M1018.92 424.523C1017.67 434.82 1016.43 445.114 1015.19 455.411C1015.04 456.622 1014.95 458.022 1015.81 458.88C1016.87 459.952 1018.64 459.494 1020.05 458.966C1027.61 456.125 1035.16 453.283 1042.72 450.441C1045.22 449.504 1048.2 447.795 1047.88 445.119C1047.65 443.307 1045.95 442.126 1044.41 441.189C1035.68 435.871 1026.94 430.55 1018.21 425.232" stroke="#E2F5FF" stroke-width="5" stroke-linecap="round" stroke-linejoin="round"/>
<path d="M1050.28 395.547C1061.32 391.803 1072.36 388.061 1083.4 384.317C1087.29 393.958 1091.18 403.599 1095.08 413.24C1084.16 414.35 1073.47 417.659 1063.81 422.916C1058.93 414.182 1054.95 404.932 1051.96 395.363" stroke="#E2F5FF" stroke-width="5" stroke-linecap="round" stroke-linejoin="round"/>
<path d="M1056.67 505.49C1053.94 514.863 1053.51 524.918 1055.42 534.499C1066.13 534.589 1076.86 533.515 1087.35 531.297C1081.89 517.582 1068.43 507.52 1053.91 506.299" stroke="#E2F5FF" stroke-width="5" stroke-linecap="round" stroke-linejoin="round"/>
<path d="M1092.57 478.897C1093.57 483.397 1095.43 487.696 1098.02 491.484C1107.4 495.865 1119.88 490.945 1123.9 481.288C1125.07 478.455 1125.58 475.232 1124.72 472.286C1123.11 466.782 1117.3 463.664 1111.75 462.575C1107.09 461.661 1102.03 461.803 1097.89 464.168C1093.75 466.535 1090.86 471.514 1091.91 476.216" stroke="#E2F5FF" stroke-width="5" stroke-linecap="round" stroke-linejoin="round"/>
<path d="M1025.37 491.479C1037.22 491.61 1049.09 488.077 1059 481.469" stroke="#E2F5FF" stroke-width="5" stroke-linecap="round" stroke-linejoin="round"/>
<path d="M1147.62 444.765C1148.33 459.496 1148.11 474.274 1146.96 488.977" stroke="#E2F5FF" stroke-width="5" stroke-linecap="round" stroke-linejoin="round"/>
<path d="M1259.22 404.344C1259.17 417.856 1260.12 431.371 1262.07 444.738" stroke="#E2F5FF" stroke-width="5" stroke-linecap="round" stroke-linejoin="round"/>
<path d="M1235.12 448.088C1244.96 462.817 1265.8 468.682 1281.7 461.194" stroke="#E2F5FF" stroke-width="5" stroke-linecap="round" stroke-linejoin="round"/>
<path d="M1283.37 414.073C1288.96 418.286 1296.29 422.672 1302.4 419.284C1304.3 418.228 1305.77 416.535 1307.19 414.875C1310.74 410.736 1314.54 405.569 1313.05 400.29C1311.67 395.395 1306.41 392.94 1301.7 391.198C1297.92 389.8 1293.9 388.447 1289.96 389.247C1282.23 390.817 1278.25 400.195 1279.25 408.134" stroke="#E2F5FF" stroke-width="5" stroke-linecap="round" stroke-linejoin="round"/>
<path d="M1128.69 404.392C1148.44 409.98 1171.07 403.153 1184.61 387.517C1191.11 380.02 1195.63 369.24 1191.68 360.092C1187.86 351.218 1177.06 347.119 1167.62 348.518C1165.95 348.765 1164.29 349.158 1162.78 349.914C1156.93 352.834 1154.88 360.101 1153.43 366.549C1152.02 372.826 1150.98 380.427 1155.64 384.792C1157.25 386.301 1159.34 387.164 1161.38 387.968C1171.85 392.096 1182.9 395.619 1194.11 394.851C1206.02 394.038 1217.51 388.147 1225.23 378.902C1232.95 369.656 1236.8 357.178 1235.64 345.112" stroke="#E2F5FF" stroke-width="5" stroke-linecap="round" stroke-linejoin="round"/>
<path d="M1376.26 385.14C1370.52 385.573 1364.78 386.008 1359.04 386.44C1355.4 392.321 1358.88 400.832 1365.03 403.892C1371.17 406.952 1378.75 405.459 1384.59 401.834C1390.01 398.465 1394.44 393.17 1395.97 386.903C1397.5 380.638 1395.81 373.453 1391.06 369.167C1388.75 367.091 1385.88 365.763 1382.93 364.868C1374.54 362.317 1365.2 363.154 1357.39 367.156C1346.44 372.762 1339.15 383.922 1334.87 395.595C1333.3 399.874 1332.06 404.399 1332.42 408.95C1333.18 418.563 1340.74 426.027 1348.09 432.134C1350.67 434.282 1353.34 436.412 1356.45 437.67C1363.48 440.523 1371.47 438.449 1378.57 435.754C1388.81 431.866 1398.98 426.392 1405.3 417.33" stroke="#E2F5FF" stroke-width="5" stroke-linecap="round" stroke-linejoin="round"/>
<path d="M1315.3 549.658C1311.33 557.86 1306.32 565.545 1300.44 572.463" stroke="#E2F5FF" stroke-width="5" stroke-linecap="round" stroke-linejoin="round"/>
<path d="M1182.16 515.526C1193.5 518.028 1204.25 523.288 1213.23 530.746" stroke="#E2F5FF" stroke-width="5" stroke-linecap="round" stroke-linejoin="round"/>
<path d="M1408.72 473.832C1409.48 481.299 1411.48 488.635 1414.6 495.439" stroke="#E2F5FF" stroke-width="5" stroke-linecap="round" stroke-linejoin="round"/>
<path d="M913.377 453.595C924.449 451.979 935.317 448.923 945.631 444.528" stroke="#E2F5FF" stroke-width="5" stroke-linecap="round" stroke-linejoin="round"/>
<path d="M898.508 430.848C896.253 426.737 894.762 422.193 894.142 417.531C899.079 414.335 905.264 413.194 910.993 414.421C907.792 410.973 909.706 404.862 913.569 402.204C917.432 399.546 922.392 399.367 927.057 399.276" stroke="#E2F5FF" stroke-width="5" stroke-linecap="round" stroke-linejoin="round"/>
<path d="M744.802 417.777C741.582 413.54 742.118 407.032 745.535 402.96C748.954 398.888 754.729 397.265 759.897 398.309C763.213 398.979 766.407 400.732 768.345 403.546C771.303 407.841 770.74 414.047 767.646 418.245C764.553 422.442 759.352 424.707 754.198 424.974" stroke="#E2F5FF" stroke-width="5" stroke-linecap="round" stroke-linejoin="round"/>
<path d="M846.189 319.684C845.774 327.688 845.36 335.689 844.945 343.693" stroke="#E2F5FF" stroke-width="5" stroke-linecap="round" stroke-linejoin="round"/>
<path d="M1124.93 276.746C1116.97 276.281 1108.99 273.114 1101.22 274.925C1093.61 276.699 1087.43 283.599 1086.41 291.458C1085.39 299.318 1089.59 307.61 1096.49 311.329C1104.62 315.714 1114.66 313.684 1123.2 310.192C1128.25 308.124 1133.12 305.583 1137.71 302.611" stroke="#E2F5FF" stroke-width="5" stroke-linecap="round" stroke-linejoin="round"/>
<path d="M1095.23 336.145C1093.69 344.037 1093.56 352.213 1094.87 360.15" stroke="#E2F5FF" stroke-width="5" stroke-linecap="round" stroke-linejoin="round"/>
<path d="M791.312 777.177C794.573 783.106 797.834 789.034 801.097 794.964" stroke="#E2F5FF" stroke-width="5" stroke-linecap="round" stroke-linejoin="round"/>
<path d="M805.188 769.48C808.883 774.896 812.898 780.086 817.2 785.018" stroke="#E2F5FF" stroke-width="5" stroke-linecap="round" stroke-linejoin="round"/>
<path d="M841.416 748.112C843.527 741.717 847.251 735.881 852.137 731.313" stroke="#E2F5FF" stroke-width="5" stroke-linecap="round" stroke-linejoin="round"/>
<path d="M723 713.924C728.393 716.029 733.786 718.136 739.176 720.24" stroke="#E2F5FF" stroke-width="5" stroke-linecap="round" stroke-linejoin="round"/>
<path d="M941.882 793.626C944.747 797.447 947.611 801.267 950.474 805.09" stroke="#E2F5FF" stroke-width="5" stroke-linecap="round" stroke-linejoin="round"/>
<path d="M939.567 670.984C937.538 676.235 936.205 681.762 935.619 687.371" stroke="#E2F5FF" stroke-width="5" stroke-linecap="round" stroke-linejoin="round"/>
<path d="M823.757 549.695C827.469 553.088 831.181 556.481 834.895 559.873" stroke="#E2F5FF" stroke-width="5" stroke-linecap="round" stroke-linejoin="round"/>
<path d="M950.751 471.182C956.162 472.798 961.575 474.416 966.987 476.032" stroke="#E2F5FF" stroke-width="5" stroke-linecap="round" stroke-linejoin="round"/>
<path d="M1005.55 394.286C1008.56 389.407 1012.11 384.873 1016.11 380.794C1016.39 379.818 1016.67 378.841 1016.94 377.864" stroke="#E2F5FF" stroke-width="5" stroke-linecap="round" stroke-linejoin="round"/>
<path d="M892.273 308.231C899.34 312.417 906.405 316.605 913.471 320.791" stroke="#E2F5FF" stroke-width="5" stroke-linecap="round" stroke-linejoin="round"/>
<path d="M1000.38 261.563C1000.71 269.414 999.102 277.341 995.738 284.417" stroke="#E2F5FF" stroke-width="5" stroke-linecap="round" stroke-linejoin="round"/>
<path d="M1106.23 427.127C1112.41 430.59 1118.58 434.05 1124.75 437.513" stroke="#E2F5FF" stroke-width="5" stroke-linecap="round" stroke-linejoin="round"/>
<path d="M1193.28 408.122C1192.01 415.626 1189.43 422.897 1185.69 429.499" stroke="#E2F5FF" stroke-width="5" stroke-linecap="round" stroke-linejoin="round"/>
<path d="M1153.49 597.747C1160.6 602.723 1167.7 607.699 1174.81 612.673" stroke="#E2F5FF" stroke-width="5" stroke-linecap="round" stroke-linejoin="round"/>
<path d="M1250.69 585.073C1253.57 576.984 1258.2 569.542 1264.16 563.434" stroke="#E2F5FF" stroke-width="5" stroke-linecap="round" stroke-linejoin="round"/>
<path d="M1380.22 571.065C1382.1 576.553 1385.33 581.562 1389.53 585.518" stroke="#E2F5FF" stroke-width="5" stroke-linecap="round" stroke-linejoin="round"/>
<path d="M1347.69 468.947C1356 466.873 1364.3 464.798 1372.6 462.724" stroke="#E2F5FF" stroke-width="5" stroke-linecap="round" stroke-linejoin="round"/>
<path d="M1433.44 574.921C1432.02 585.255 1429.53 595.438 1426.01 605.244" stroke="#E2F5FF" stroke-width="5" stroke-linecap="round" stroke-linejoin="round"/>
<path d="M1426.02 658.357C1430.58 662.155 1435.14 665.952 1439.7 669.747" stroke="#E2F5FF" stroke-width="5" stroke-linecap="round" stroke-linejoin="round"/>
<path d="M1214.45 134.808C1204.65 145.379 1199.23 159.566 1197.16 173.932C1195.84 183.096 1195.85 192.726 1199.31 201.297C1203.52 211.759 1212.71 219.747 1223.17 223.614C1233.63 227.478 1245.24 227.465 1256.08 224.874C1266.31 222.428 1276.4 217.407 1282.56 208.759C1289.14 199.53 1290.42 187.575 1291.3 176.216C1292.03 166.796 1292.59 157.022 1289.3 148.181C1277.13 115.458 1236.63 110.871 1214.45 134.81L1214.45 134.808Z" stroke="#E2F5FF" stroke-width="5" stroke-linecap="round" stroke-linejoin="round"/>
<path d="M1159.7 209.75C1154.09 219.37 1148.39 229.297 1146.73 240.344C1145.07 251.392 1148.41 263.975 1157.66 270.042C1169.04 277.515 1185.97 271.486 1192.12 259.222C1194.13 255.22 1195.16 250.392 1193.48 246.237C1189.87 237.34 1176.87 237.419 1168.83 242.512C1161.06 247.437 1155.25 255.724 1153.95 264.935C1152.65 274.146 1156.17 284.078 1163.4 289.789C1167.52 293.037 1172.56 294.844 1177.63 296.086C1195.15 300.381 1214.61 298.158 1229.5 287.847C1233.79 284.873 1237.77 281.134 1239.9 276.316C1242.02 271.497 1241.97 265.449 1238.77 261.291C1234.6 255.866 1225.88 255.399 1220.53 259.619C1215.17 263.84 1213.28 271.653 1215.08 278.292C1216.87 284.931 1221.87 290.356 1227.78 293.728C1238.56 299.878 1252.68 299.425 1263.05 292.595C1273.42 285.766 1279.59 272.862 1278.45 260.363" stroke="#E2F5FF" stroke-width="5" stroke-linecap="round" stroke-linejoin="round"/>
<path d="M1192.21 317.124C1194.99 325.374 1199.1 333.164 1204.31 340.094" stroke="#E2F5FF" stroke-width="5" stroke-linecap="round" stroke-linejoin="round"/>
<path d="M1131.13 339.878C1139.06 337.734 1146.65 334.313 1153.53 329.781" stroke="#E2F5FF" stroke-width="5" stroke-linecap="round" stroke-linejoin="round"/>
<path d="M1189.53 130.71C1181.91 130.606 1173.24 130.95 1168.24 136.798C1164.35 141.349 1164.08 148.674 1167.61 153.515C1171.14 158.357 1178.12 160.217 1183.54 157.764" stroke="#E2F5FF" stroke-width="5" stroke-linecap="round" stroke-linejoin="round"/>
<path d="M1301.75 216.83C1310.29 219.516 1319.61 221.651 1328.03 218.591C1336.45 215.531 1342.85 205.29 1338.88 197.156C1336.72 192.74 1332.08 189.998 1327.33 188.998C1322.58 188.001 1317.66 188.503 1312.83 189.08" stroke="#E2F5FF" stroke-width="5" stroke-linecap="round" stroke-linejoin="round"/>
<path d="M1351.27 294.433C1350.52 289.761 1349.77 285.089 1349.02 280.415C1351.99 276.781 1357.35 275.62 1361.73 277.213C1366.1 278.808 1369.39 282.836 1370.69 287.368C1372.54 293.812 1370.51 301.06 1366.16 306.115C1361.81 311.171 1355.4 314.133 1348.85 315.01C1345.8 315.417 1342.63 315.387 1339.77 314.249C1333.55 311.775 1330.25 304.497 1330.29 297.716C1330.34 290.935 1333.03 284.496 1335.67 278.271C1336.97 275.209 1338.33 272.063 1340.68 269.73C1343.03 267.4 1346.19 266.084 1349.38 265.279C1359.14 262.815 1369.93 264.882 1378.14 270.793C1386.34 276.704 1391.83 286.354 1392.77 296.528C1393.07 299.748 1392.93 303.039 1392.07 306.152C1388.5 319.098 1374.23 325.379 1361.38 328.597" stroke="#E2F5FF" stroke-width="5" stroke-linecap="round" stroke-linejoin="round"/>
<path d="M1280.58 328.537C1279.95 337.392 1280.17 346.309 1281.23 355.123" stroke="#E2F5FF" stroke-width="5" stroke-linecap="round" stroke-linejoin="round"/>
<path d="M1292.87 309.526C1299.5 305.299 1306.13 301.071 1312.76 296.844" stroke="#E2F5FF" stroke-width="5" stroke-linecap="round" stroke-linejoin="round"/>
<path d="M1326.56 352.344C1333.2 354.439 1339.84 356.532 1346.48 358.627" stroke="#E2F5FF" stroke-width="5" stroke-linecap="round" stroke-linejoin="round"/>
<path d="M1425.82 329.792C1425.85 337.726 1422.84 345.63 1417.57 351.485" stroke="#E2F5FF" stroke-width="5" stroke-linecap="round" stroke-linejoin="round"/>
<path d="M1421.06 391.768C1426.87 392.614 1432.67 393.458 1438.48 394.305" stroke="#E2F5FF" stroke-width="5" stroke-linecap="round" stroke-linejoin="round"/>
<path d="M1409.87 284.313C1417.75 283.004 1425.62 281.692 1433.49 280.383" stroke="#E2F5FF" stroke-width="5" stroke-linecap="round" stroke-linejoin="round"/>
<path d="M1407.41 233.708C1399.68 229.229 1392.51 223.739 1386.15 217.414" stroke="#E2F5FF" stroke-width="5" stroke-linecap="round" stroke-linejoin="round"/>
<path d="M1407.4 179.232C1413.43 178.573 1419.84 177.755 1424.49 173.806C1431.71 167.67 1431.51 155.073 1424.87 148.295C1418.23 141.516 1406.91 140.77 1398.73 145.514" stroke="#E2F5FF" stroke-width="5" stroke-linecap="round" stroke-linejoin="round"/>
<path d="M1324.02 236.338C1330.39 234.596 1336.85 233.241 1343.37 232.278C1344.57 232.101 1346 232.022 1346.77 232.966C1347.45 233.803 1347.27 235.034 1347.06 236.099C1345.79 242.375 1344.52 248.649 1343.25 254.925C1334.95 256.578 1326.42 257.048 1318 256.32C1317.37 249.655 1317.85 242.882 1319.41 236.378" stroke="#E2F5FF" stroke-width="5" stroke-linecap="round" stroke-linejoin="round"/>
<path d="M1207.52 79.6567C1206.78 87.2351 1206.05 94.8111 1205.31 102.39C1205.25 103.08 1205.18 103.801 1205.44 104.443C1206.08 106.003 1208.12 106.236 1209.78 106.224C1215.29 106.187 1220.8 106.15 1226.32 106.112C1228.27 104.329 1226.2 101.164 1224.21 99.4247C1218.08 94.067 1211.95 88.707 1205.82 83.3494" stroke="#E2F5FF" stroke-width="5" stroke-linecap="round" stroke-linejoin="round"/>
<path d="M1218.29 17.6996C1216.72 24.3385 1215.83 31.1449 1215.64 37.9722C1215.61 39.2697 1215.64 40.6882 1216.45 41.6858C1217.39 42.8345 1219.03 43.0229 1220.5 43.081C1226.87 43.3415 1233.26 42.8043 1239.49 41.4858C1238.96 32.8378 1238.44 24.1897 1237.91 15.5393C1229.33 14.3999 1220.63 14.1674 1212 14.8464" stroke="#E2F5FF" stroke-width="5" stroke-linecap="round" stroke-linejoin="round"/>
<path d="M1284.2 2.51514C1281.67 5.88227 1279.15 9.24941 1276.62 12.6165C1275.9 13.5792 1275.15 14.614 1275.06 15.8209C1274.68 20.9065 1283.88 19.7624 1286.59 24.0597" stroke="#E2F5FF" stroke-width="5" stroke-linecap="round" stroke-linejoin="round"/>
<path d="M1274.18 49.9454C1286.93 52.6661 1300.55 49.6617 1311.69 42.8112C1322.83 35.9606 1331.57 25.4686 1337.48 13.6836" stroke="#E2F5FF" stroke-width="5" stroke-linecap="round" stroke-linejoin="round"/>
<path d="M1259.33 75.8105C1258.39 85.698 1257.46 95.5831 1256.52 105.471C1265.31 99.1619 1275.15 94.36 1285.5 91.3324C1288.94 99.6177 1292.38 107.905 1295.82 116.191C1305.67 109.545 1315.53 102.896 1325.39 96.2505" stroke="#E2F5FF" stroke-width="5" stroke-linecap="round" stroke-linejoin="round"/>
<path d="M1366.7 -32.9655C1356.23 -29.2426 1352.11 -14.5276 1357.76 -4.83318C1363.42 4.85896 1376.37 8.65861 1386.95 5.26822C1391.05 3.95439 1394.96 1.62205 1397.43 -1.94739C1400.91 -6.97251 1401.05 -13.5812 1400.6 -19.7062C1400.25 -24.65 1399.29 -30.1332 1395.36 -33.0864C1392.83 -34.9932 1389.54 -35.4443 1386.41 -35.8327C1382.26 -36.3489 1378.11 -36.8651 1373.95 -37.3813" stroke="#E2F5FF" stroke-width="5" stroke-linecap="round" stroke-linejoin="round"/>
<path d="M1351.86 50.8594C1356.47 64.7465 1361.1 79.8893 1356.39 93.7438C1355.35 96.8017 1353.77 99.8223 1351.16 101.673C1347.24 104.447 1341.65 103.915 1337.7 101.199C1333.74 98.4806 1331.28 93.9554 1330.04 89.2745C1328.68 84.0912 1330.02 76.8082 1335.26 76.1431" stroke="#E2F5FF" stroke-width="5" stroke-linecap="round" stroke-linejoin="round"/>
<path d="M1409.9 46.9995C1396.23 50.7643 1385.92 64.6095 1386.09 78.9919C1386.12 81.3731 1386.42 83.7985 1387.43 85.9424C1390.06 91.4675 1397.09 93.7627 1402.97 92.3558C1407.4 91.2955 1411.9 87.1028 1410.54 82.6869C1409.38 78.9547 1404.83 77.5804 1400.98 77.7199C1392.54 78.0292 1384.43 83.1264 1380.39 90.656C1376.35 98.1832 1376.53 107.868 1380.85 115.235" stroke="#E2F5FF" stroke-width="5" stroke-linecap="round" stroke-linejoin="round"/>
<path d="M1418.61 23.9761C1421.65 28.8035 1425.03 33.4124 1428.71 37.7585C1429.2 38.3445 1429.75 38.9538 1430.48 39.1468C1433.71 39.9955 1433.31 33.6124 1436.07 31.7103" stroke="#E2F5FF" stroke-width="5" stroke-linecap="round" stroke-linejoin="round"/>
<path d="M1367.62 34.0981C1368.57 38.5582 1370.08 42.895 1372.11 46.9691" stroke="#E2F5FF" stroke-width="5" stroke-linecap="round" stroke-linejoin="round"/>
<path d="M1316.66 155.52C1323.18 148.188 1330.79 141.856 1339.15 136.808" stroke="#E2F5FF" stroke-width="5" stroke-linecap="round" stroke-linejoin="round"/>
<path d="M1365.03 159.196C1362.76 165.863 1355.34 171.746 1357.92 178.295C1359.46 182.19 1363.97 183.878 1368.06 184.438C1371.48 184.906 1375.12 184.859 1378.14 183.173C1381.16 181.49 1383.28 177.783 1382.27 174.441" stroke="#E2F5FF" stroke-width="5" stroke-linecap="round" stroke-linejoin="round"/>
<path d="M1413.56 214.954C1418.94 216.673 1424.32 218.393 1429.7 220.112" stroke="#E2F5FF" stroke-width="5" stroke-linecap="round" stroke-linejoin="round"/>
<path d="M1433.52 97.29C1431.39 103.938 1428.46 110.321 1424.8 116.244" stroke="#E2F5FF" stroke-width="5" stroke-linecap="round" stroke-linejoin="round"/>
<path d="M1210.71 169.397C1215.59 173.765 1220 178.68 1223.83 184.026" stroke="#E2F5FF" stroke-width="5" stroke-linecap="round" stroke-linejoin="round"/>
<path d="M1256.8 202.15C1261.76 197.918 1266.73 193.686 1271.69 189.454" stroke="#E2F5FF" stroke-width="5" stroke-linecap="round" stroke-linejoin="round"/>
<path d="M1236.91 147.839C1243.13 150.367 1249.35 152.894 1255.57 155.42" stroke="#E2F5FF" stroke-width="5" stroke-linecap="round" stroke-linejoin="round"/>
<path d="M727.976 291C731.66 291 731.665 285.187 727.976 285.187C724.287 285.187 724.287 291 727.976 291Z" fill="#F5EEEB"/>
<path d="M772.771 322.591C776.455 322.591 776.46 316.777 772.771 316.777C769.082 316.777 769.082 322.591 772.771 322.591Z" fill="#F5EEEB"/>
<path d="M815.08 253.092C818.765 253.092 818.769 247.279 815.08 247.279C811.391 247.279 811.391 253.092 815.08 253.092Z" fill="#F5EEEB"/>
<path d="M867.343 330.171C871.027 330.171 871.032 324.358 867.343 324.358C863.654 324.358 863.654 330.171 867.343 330.171Z" fill="#F5EEEB"/>
<path d="M922.093 245.512C925.777 245.512 925.782 239.698 922.093 239.698C918.404 239.698 918.404 245.512 922.093 245.512Z" fill="#F5EEEB"/>
<path d="M1006.71 191.177C1010.39 191.177 1010.4 185.363 1006.71 185.363C1003.02 185.363 1003.02 191.177 1006.71 191.177Z" fill="#F5EEEB"/>
<path d="M1083.86 119.151C1087.54 119.151 1087.55 113.337 1083.86 113.337C1080.17 113.337 1080.17 119.151 1083.86 119.151Z" fill="#F5EEEB"/>
<path d="M1139.85 73.6621C1143.54 73.6621 1143.54 67.8486 1139.85 67.8486C1136.16 67.8486 1136.16 73.6621 1139.85 73.6621Z" fill="#F5EEEB"/>
<path d="M1177.18 2.90082C1180.87 2.90082 1180.87 -2.9126 1177.18 -2.9126C1173.49 -2.9126 1173.49 2.90082 1177.18 2.90082Z" fill="#F5EEEB"/>
<path d="M1337.7 49.6528C1341.38 49.6528 1341.39 43.8394 1337.7 43.8394C1334.01 43.8394 1334.01 49.6528 1337.7 49.6528Z" fill="#F5EEEB"/>
<path d="M1235.67 82.5077C1239.35 82.5077 1239.35 76.6943 1235.67 76.6943C1231.98 76.6943 1231.98 82.5077 1235.67 82.5077Z" fill="#F5EEEB"/>
<path d="M1161.01 196.23C1164.69 196.23 1164.69 190.417 1161.01 190.417C1157.32 190.417 1157.32 196.23 1161.01 196.23Z" fill="#F5EEEB"/>
<path d="M1234.42 197.495C1238.1 197.495 1238.11 191.682 1234.42 191.682C1230.73 191.682 1230.73 197.495 1234.42 197.495Z" fill="#F5EEEB"/>
<path d="M1274.24 155.796C1277.92 155.796 1277.93 149.983 1274.24 149.983C1270.55 149.983 1270.55 155.796 1274.24 155.796Z" fill="#F5EEEB"/>
<path d="M1333.97 170.958C1337.65 170.958 1337.66 165.145 1333.97 165.145C1330.28 165.145 1330.28 170.958 1333.97 170.958Z" fill="#F5EEEB"/>
<path d="M1399.92 122.941C1403.6 122.941 1403.61 117.128 1399.92 117.128C1396.23 117.128 1396.23 122.941 1399.92 122.941Z" fill="#F5EEEB"/>
<path d="M1427.29 197.495C1430.98 197.495 1430.98 191.682 1427.29 191.682C1423.6 191.682 1423.6 197.495 1427.29 197.495Z" fill="#F5EEEB"/>
<path d="M1373.79 250.564C1377.47 250.564 1377.48 244.751 1373.79 244.751C1370.1 244.751 1370.1 250.564 1373.79 250.564Z" fill="#F5EEEB"/>
<path d="M1432.27 311.217C1435.95 311.217 1435.96 305.404 1432.27 305.404C1428.58 305.404 1428.58 311.217 1432.27 311.217Z" fill="#F5EEEB"/>
<path d="M1305.35 270.784C1309.03 270.784 1309.04 264.97 1305.35 264.97C1301.66 264.97 1301.66 270.784 1305.35 270.784Z" fill="#F5EEEB"/>
<path d="M1243.13 333.961C1246.82 333.961 1246.82 328.148 1243.13 328.148C1239.44 328.148 1239.44 333.961 1243.13 333.961Z" fill="#F5EEEB"/>
<path d="M1194.6 280.892C1198.29 280.892 1198.29 275.079 1194.6 275.079C1190.91 275.079 1190.91 280.892 1194.6 280.892Z" fill="#F5EEEB"/>
<path d="M1112.48 246.774C1116.16 246.774 1116.17 240.961 1112.48 240.961C1108.79 240.961 1108.79 246.774 1112.48 246.774Z" fill="#F5EEEB"/>
<path d="M1037.82 277.102C1041.5 277.102 1041.5 271.288 1037.82 271.288C1034.13 271.288 1034.13 277.102 1037.82 277.102Z" fill="#F5EEEB"/>
<path d="M975.599 369.344C979.283 369.344 979.288 363.531 975.599 363.531C971.91 363.531 971.91 369.344 975.599 369.344Z" fill="#F5EEEB"/>
<path d="M932.047 364.289C935.732 364.289 935.736 358.476 932.047 358.476C928.358 358.476 928.358 364.289 932.047 364.289Z" fill="#F5EEEB"/>
<path d="M830.012 370.607C833.696 370.607 833.701 364.793 830.012 364.793C826.323 364.793 826.323 370.607 830.012 370.607Z" fill="#F5EEEB"/>
<path d="M730.465 427.469C734.15 427.469 734.154 421.656 730.465 421.656C726.776 421.656 726.776 427.469 730.465 427.469Z" fill="#F5EEEB"/>
<path d="M727.976 474.221C731.66 474.221 731.665 468.407 727.976 468.407C724.287 468.407 724.287 474.221 727.976 474.221Z" fill="#F5EEEB"/>
<path d="M817.569 467.903C821.253 467.903 821.258 462.089 817.569 462.089C813.879 462.089 813.879 467.903 817.569 467.903Z" fill="#F5EEEB"/>
<path d="M864.854 414.833C868.538 414.833 868.543 409.02 864.854 409.02C861.165 409.02 861.165 414.833 864.854 414.833Z" fill="#F5EEEB"/>
<path d="M920.849 435.05C924.533 435.05 924.538 429.236 920.849 429.236C917.16 429.236 917.16 435.05 920.849 435.05Z" fill="#F5EEEB"/>
<path d="M922.093 512.129C925.777 512.129 925.782 506.315 922.093 506.315C918.404 506.315 918.404 512.129 922.093 512.129Z" fill="#F5EEEB"/>
<path d="M854.9 536.139C858.584 536.139 858.589 530.325 854.9 530.325C851.211 530.325 851.211 536.139 854.9 536.139Z" fill="#F5EEEB"/>
<path d="M762.817 560.145C766.501 560.145 766.506 554.332 762.817 554.332C759.128 554.332 759.128 560.145 762.817 560.145Z" fill="#F5EEEB"/>
<path d="M732.954 628.381C736.639 628.381 736.643 622.568 732.954 622.568C729.265 622.568 729.265 628.381 732.954 628.381Z" fill="#F5EEEB"/>
<path d="M772.771 663.761C776.455 663.761 776.46 657.948 772.771 657.948C769.082 657.948 769.082 663.761 772.771 663.761Z" fill="#F5EEEB"/>
<path d="M862.364 608.162C866.049 608.162 866.054 602.349 862.364 602.349C858.675 602.349 858.675 608.162 862.364 608.162Z" fill="#F5EEEB"/>
<path d="M923.336 576.574C927.021 576.574 927.025 570.761 923.336 570.761C919.647 570.761 919.647 576.574 923.336 576.574Z" fill="#F5EEEB"/>
<path d="M978.088 641.017C981.773 641.017 981.777 635.204 978.088 635.204C974.399 635.204 974.399 641.017 978.088 641.017Z" fill="#F5EEEB"/>
<path d="M1026.62 574.046C1030.3 574.046 1030.3 568.233 1026.62 568.233C1022.93 568.233 1022.93 574.046 1026.62 574.046Z" fill="#F5EEEB"/>
<path d="M1009.2 480.539C1012.88 480.539 1012.89 474.726 1009.2 474.726C1005.51 474.726 1005.51 480.539 1009.2 480.539Z" fill="#F5EEEB"/>
<path d="M1076.39 451.477C1080.07 451.477 1080.08 445.663 1076.39 445.663C1072.7 445.663 1072.7 451.477 1076.39 451.477Z" fill="#F5EEEB"/>
<path d="M1112.48 389.561C1116.16 389.561 1116.17 383.748 1112.48 383.748C1108.79 383.748 1108.79 389.561 1112.48 389.561Z" fill="#F5EEEB"/>
<path d="M1113.72 298.581C1117.4 298.581 1117.41 292.768 1113.72 292.768C1110.03 292.768 1110.03 298.581 1113.72 298.581Z" fill="#F5EEEB"/>
<path d="M1175.94 375.662C1179.62 375.662 1179.63 369.849 1175.94 369.849C1172.25 369.849 1172.25 375.662 1175.94 375.662Z" fill="#F5EEEB"/>
<path d="M1167.23 464.112C1170.91 464.112 1170.92 458.299 1167.23 458.299C1163.54 458.299 1163.54 464.112 1167.23 464.112Z" fill="#F5EEEB"/>
<path d="M1238.15 426.204C1241.84 426.204 1241.84 420.391 1238.15 420.391C1234.47 420.391 1234.47 426.204 1238.15 426.204Z" fill="#F5EEEB"/>
<path d="M1226.95 505.811C1230.64 505.811 1230.64 499.998 1226.95 499.998C1223.27 499.998 1223.27 505.811 1226.95 505.811Z" fill="#F5EEEB"/>
<path d="M1311.57 481.804C1315.25 481.804 1315.26 475.99 1311.57 475.99C1307.88 475.99 1307.88 481.804 1311.57 481.804Z" fill="#F5EEEB"/>
<path d="M1282.95 508.338C1286.63 508.338 1286.64 502.525 1282.95 502.525C1279.26 502.525 1279.26 508.338 1282.95 508.338Z" fill="#F5EEEB"/>
<path d="M1360.1 560.145C1363.78 560.145 1363.79 554.332 1360.1 554.332C1356.41 554.332 1356.41 560.145 1360.1 560.145Z" fill="#F5EEEB"/>
<path d="M1433.51 469.168C1437.2 469.168 1437.2 463.354 1433.51 463.354C1429.83 463.354 1429.83 469.168 1433.51 469.168Z" fill="#F5EEEB"/>
<path d="M1362.59 423.679C1366.27 423.679 1366.28 417.866 1362.59 417.866C1358.9 417.866 1358.9 423.679 1362.59 423.679Z" fill="#F5EEEB"/>
<path d="M828.767 764.85C832.451 764.85 832.456 759.037 828.767 759.037C825.078 759.037 825.078 764.85 828.767 764.85Z" fill="#F5EEEB"/>
<path d="M729.222 819.185C732.906 819.185 732.911 813.371 729.222 813.371C725.533 813.371 725.533 819.185 729.222 819.185Z" fill="#F5EEEB"/>
<path d="M893.473 792.647C897.157 792.647 897.162 786.834 893.473 786.834C889.784 786.834 889.784 792.647 893.473 792.647Z" fill="#F5EEEB"/>
<path d="M914.627 733.26C918.312 733.26 918.316 727.446 914.627 727.446C910.938 727.446 910.938 733.26 914.627 733.26Z" fill="#F5EEEB"/>
<path d="M836.235 668.815C839.919 668.815 839.924 663.001 836.235 663.001C832.546 663.001 832.546 668.815 836.235 668.815Z" fill="#F5EEEB"/>
<path d="M980.577 731.995C984.262 731.995 984.266 726.182 980.577 726.182C976.888 726.182 976.888 731.995 980.577 731.995Z" fill="#F5EEEB"/>
<path d="M989.286 821.71C992.971 821.71 992.975 815.896 989.286 815.896C985.597 815.896 985.597 821.71 989.286 821.71Z" fill="#F5EEEB"/>
<path d="M1068.93 776.221C1072.61 776.221 1072.61 770.408 1068.93 770.408C1065.24 770.408 1065.24 776.221 1068.93 776.221Z" fill="#F5EEEB"/>
<path d="M1031.59 677.66C1035.28 677.66 1035.28 671.847 1031.59 671.847C1027.9 671.847 1027.9 677.66 1031.59 677.66Z" fill="#F5EEEB"/>
<path d="M1107.5 623.326C1111.18 623.326 1111.19 617.513 1107.5 617.513C1103.81 617.513 1103.81 623.326 1107.5 623.326Z" fill="#F5EEEB"/>
<path d="M1156.03 697.879C1159.71 697.879 1159.72 692.066 1156.03 692.066C1152.34 692.066 1152.34 697.879 1156.03 697.879Z" fill="#F5EEEB"/>
<path d="M1202.07 663.761C1205.75 663.761 1205.76 657.948 1202.07 657.948C1198.38 657.948 1198.38 663.761 1202.07 663.761Z" fill="#F5EEEB"/>
<path d="M1197.09 600.581C1200.78 600.581 1200.78 594.768 1197.09 594.768C1193.4 594.768 1193.4 600.581 1197.09 600.581Z" fill="#F5EEEB"/>
<path d="M1234.42 567.728C1238.1 567.728 1238.11 561.915 1234.42 561.915C1230.73 561.915 1230.73 567.728 1234.42 567.728Z" fill="#F5EEEB"/>
<path d="M1325.26 647.335C1328.94 647.335 1328.95 641.522 1325.26 641.522C1321.57 641.522 1321.57 647.335 1325.26 647.335Z" fill="#F5EEEB"/>
<path d="M1340.19 553.827C1343.87 553.827 1343.88 548.014 1340.19 548.014C1336.5 548.014 1336.5 553.827 1340.19 553.827Z" fill="#F5EEEB"/>
<path d="M1384.98 515.922C1388.67 515.922 1388.67 510.108 1384.98 510.108C1381.3 510.108 1381.3 515.922 1384.98 515.922Z" fill="#F5EEEB"/>
<path d="M1085.1 552.565C1088.79 552.565 1088.79 546.751 1085.1 546.751C1081.41 546.751 1081.41 552.565 1085.1 552.565Z" fill="#F5EEEB"/>
<path d="M971.866 441.368C975.551 441.368 975.555 435.555 971.866 435.555C968.177 435.555 968.177 441.368 971.866 441.368Z" fill="#F5EEEB"/>
</svg>
